<svg id="svgcontent" width="955" height="626" x="0" y="0" overflow="visible" xmlns="http://www.w3.org/2000/svg" xmlns:se="http://imprintnext.com" xmlns:xlink="http://www.w3.org/1999/xlink" viewBox="0 0 955 626"><!-- Made with luv in USA by ImprintNext - https://imprintnext.com--><defs><clipPath id="bound_0" xe_id="bound_0"><rect id="xe_vv7bdh" x="95.5" y="185.66666666666666" pointer-events="all" width="764" height="254.66666666666669"></rect></clipPath></defs><g id="bounds" display="none"><path d="M95.5 185.66666666666666 L859.5 185.66666666666666 L859.5 440.33333333333337 L95.5 440.33333333333337  Z" x="95.5" y="185.66666666666666" width="764" height="254.66666666666669" aWidth="6" aHeight="2.00" fill="none" stroke="#006400" isBleed="0" safeVal="0" cropVal="0" stroke-miterlimit="null" stroke-width="1" pointer-events="all" id="bound_0" xe_id="bound_0"></path></g><g class="layer" id="Layer_0" xe_id="Layer_0" style="pointer-events:all" clip-path="url(#bound_0)"><title>Layer_0</title><g id="background" type="bg_area_0" pointer-events="none" style="color-interpolation-filters:sRGB;pointer-events: none;"></g><g id="xe_3c38je" type="text" pointer-events="bounding-box" xe-props="&amp;#35;&amp;#103;&amp;#76;&amp;#73;&amp;#65;&amp;#101;&amp;#122;&amp;#127;&amp;#26;&amp;#68;&amp;#84;&amp;#120;&amp;#44;&amp;#103;&amp;#20;&amp;#18;&amp;#69;&amp;#101;&amp;#32;&amp;#49;&amp;#26;&amp;#10;&amp;#19;&amp;#83;&amp;#61;&amp;#49;&amp;#24;&amp;#102;&amp;#84;&amp;#114;&amp;#122;&amp;#105;&amp;#26;&amp;#86;&amp;#94;&amp;#110;&amp;#44;&amp;#103;&amp;#2;&amp;#75;&amp;#19;&amp;#99;&amp;#57;&amp;#49;&amp;#93;&amp;#87;&amp;#94;&amp;#114;&amp;#33;&amp;#26;&amp;#86;&amp;#81;&amp;#92;&amp;#101;&amp;#43;&amp;#103;&amp;#2;&amp;#18;&amp;#19;&amp;#44;&amp;#122;&amp;#35;&amp;#81;&amp;#92;&amp;#84;&amp;#95;&amp;#54;&amp;#36;&amp;#85;&amp;#85;&amp;#19;&amp;#58;&amp;#122;&amp;#103;&amp;#20;&amp;#18;&amp;#87;&amp;#111;&amp;#54;&amp;#49;&amp;#103;&amp;#86;&amp;#80;&amp;#109;&amp;#49;&amp;#41;&amp;#65;&amp;#18;&amp;#11;&amp;#34;&amp;#10;&amp;#42;&amp;#90;&amp;#95;&amp;#69;&amp;#111;&amp;#21;&amp;#42;&amp;#86;&amp;#95;&amp;#28;&amp;#86;&amp;#57;&amp;#55;&amp;#81;&amp;#81;&amp;#83;&amp;#108;&amp;#61;&amp;#3;&amp;#87;&amp;#94;&amp;#69;&amp;#95;&amp;#47;&amp;#34;&amp;#80;&amp;#68;&amp;#19;&amp;#44;&amp;#122;&amp;#43;&amp;#89;&amp;#93;&amp;#84;&amp;#34;&amp;#98;&amp;#103;&amp;#106;&amp;#95;&amp;#83;&amp;#111;&amp;#44;&amp;#42;&amp;#117;&amp;#95;&amp;#95;&amp;#111;&amp;#117;&amp;#19;&amp;#89;&amp;#66;&amp;#88;&amp;#97;&amp;#58;&amp;#41;&amp;#93;&amp;#118;&amp;#94;&amp;#110;&amp;#44;&amp;#26;&amp;#79;&amp;#87;&amp;#89;&amp;#116;&amp;#122;&amp;#105;&amp;#26;&amp;#64;&amp;#67;&amp;#105;&amp;#59;&amp;#32;&amp;#26;&amp;#10;&amp;#1;&amp;#44;&amp;#122;&amp;#61;&amp;#93;&amp;#111;&amp;#88;&amp;#100;&amp;#122;&amp;#127;&amp;#8;&amp;#77;&amp;#29;&amp;#34;&amp;#62;&amp;#44;&amp;#84;&amp;#92;&amp;#19;&amp;#58;&amp;#122;&amp;#102;&amp;#8;&amp;#0;&amp;#1;&amp;#48;&amp;#104;&amp;#117;&amp;#26;&amp;#28;&amp;#19;&amp;#102;&amp;#49;&amp;#41;&amp;#84;&amp;#126;&amp;#80;&amp;#109;&amp;#61;&amp;#103;&amp;#2;&amp;#18;&amp;#18;&amp;#48;&amp;#104;&amp;#117;&amp;#8;&amp;#0;&amp;#1;&amp;#34;&amp;#116;&amp;#103;&amp;#75;&amp;#68;&amp;#67;&amp;#111;&amp;#51;&amp;#32;&amp;#26;&amp;#10;&amp;#19;&amp;#35;&amp;#104;&amp;#117;&amp;#8;&amp;#0;&amp;#1;&amp;#48;&amp;#122;&amp;#105;&amp;#26;&amp;#67;&amp;#69;&amp;#114;&amp;#55;&amp;#46;&amp;#93;&amp;#126;&amp;#80;&amp;#109;&amp;#61;&amp;#103;&amp;#2;&amp;#18;&amp;#18;&amp;#48;&amp;#104;&amp;#117;&amp;#8;&amp;#0;&amp;#1;&amp;#34;&amp;#116;&amp;#103;&amp;#76;&amp;#85;&amp;#73;&amp;#116;&amp;#20;&amp;#32;&amp;#86;&amp;#18;&amp;#11;&amp;#55;&amp;#116;&amp;#103;&amp;#75;&amp;#68;&amp;#67;&amp;#111;&amp;#51;&amp;#32;&amp;#111;&amp;#89;&amp;#85;&amp;#116;&amp;#48;&amp;#103;&amp;#2;&amp;#0;&amp;#29;&amp;#34;&amp;#54;&amp;#42;&amp;#119;&amp;#86;&amp;#125;&amp;#105;&amp;#54;&amp;#32;&amp;#75;&amp;#18;&amp;#11;&amp;#48;&amp;#116;&amp;#103;&amp;#84;&amp;#89;&amp;#95;&amp;#101;&amp;#11;&amp;#53;&amp;#89;&amp;#83;&amp;#84;&amp;#34;&amp;#98;&amp;#117;&amp;#20;&amp;#18;&amp;#93;&amp;#101;&amp;#44;&amp;#49;&amp;#93;&amp;#66;&amp;#98;&amp;#112;&amp;#57;&amp;#38;&amp;#93;&amp;#18;&amp;#11;&amp;#48;&amp;#116;&amp;#103;&amp;#94;&amp;#95;&amp;#95;&amp;#116;&amp;#11;&amp;#44;&amp;#66;&amp;#85;&amp;#19;&amp;#58;&amp;#105;&amp;#117;&amp;#9;&amp;#28;&amp;#19;&amp;#97;&amp;#42;&amp;#49;&amp;#107;&amp;#89;&amp;#75;&amp;#101;&amp;#122;&amp;#127;&amp;#9;&amp;#28;&amp;#19;&amp;#101;&amp;#62;&amp;#35;&amp;#93;&amp;#83;&amp;#69;&amp;#34;&amp;#98;&amp;#103;&amp;#86;&amp;#95;&amp;#95;&amp;#101;&amp;#122;&amp;#105;&amp;#26;&amp;#81;&amp;#93;&amp;#105;&amp;#63;&amp;#43;&amp;#26;&amp;#10;&amp;#19;&amp;#99;&amp;#61;&amp;#43;&amp;#76;&amp;#85;&amp;#67;&amp;#34;&amp;#116;&amp;#103;&amp;#91;&amp;#95;&amp;#93;&amp;#111;&amp;#42;&amp;#54;&amp;#26;&amp;#10;&amp;#106;&amp;#34;&amp;#123;&amp;#117;&amp;#8;&amp;#0;&amp;#1;&amp;#48;&amp;#104;&amp;#103;&amp;#20;&amp;#18;&amp;#18;&amp;#48;&amp;#104;&amp;#117;&amp;#8;&amp;#0;&amp;#1;&amp;#34;&amp;#5;&amp;#105;&amp;#26;&amp;#72;&amp;#84;&amp;#73;&amp;#60;&amp;#103;&amp;#2;&amp;#0;&amp;#29;&amp;#34;&amp;#55;&amp;#39;&amp;#82;&amp;#85;&amp;#82;&amp;#116;&amp;#12;&amp;#44;&amp;#76;&amp;#92;&amp;#84;&amp;#34;&amp;#98;&amp;#103;&amp;#26;&amp;#28;&amp;#19;&amp;#111;&amp;#40;&amp;#32;&amp;#74;&amp;#81;&amp;#69;&amp;#105;&amp;#55;&amp;#43;&amp;#26;&amp;#10;&amp;#19;&amp;#117;&amp;#40;&amp;#33;&amp;#89;&amp;#68;&amp;#84;&amp;#34;&amp;#116;&amp;#103;&amp;#81;&amp;#67;&amp;#101;&amp;#101;&amp;#53;&amp;#53;&amp;#84;&amp;#81;&amp;#69;&amp;#101;&amp;#29;&amp;#41;&amp;#93;&amp;#93;&amp;#19;&amp;#58;&amp;#62;&amp;#36;&amp;#84;&amp;#67;&amp;#84;&amp;#44;&amp;#122;&amp;#44;&amp;#75;&amp;#102;&amp;#84;&amp;#114;&amp;#44;&amp;#44;&amp;#91;&amp;#81;&amp;#93;&amp;#34;&amp;#98;&amp;#35;&amp;#89;&amp;#92;&amp;#66;&amp;#101;&amp;#116;&amp;#103;&amp;#81;&amp;#67;&amp;#101;&amp;#101;&amp;#53;&amp;#53;&amp;#84;&amp;#81;&amp;#69;&amp;#101;&amp;#17;&amp;#40;&amp;#95;&amp;#18;&amp;#11;&amp;#102;&amp;#57;&amp;#41;&amp;#75;&amp;#85;&amp;#29;&amp;#34;&amp;#52;&amp;#42;&amp;#91;&amp;#91;&amp;#19;&amp;#58;&amp;#35;&amp;#103;&amp;#91;&amp;#95;&amp;#93;&amp;#111;&amp;#42;&amp;#0;&amp;#92;&amp;#89;&amp;#69;&amp;#34;&amp;#98;&amp;#35;&amp;#89;&amp;#92;&amp;#66;&amp;#101;&amp;#116;&amp;#103;&amp;#92;&amp;#85;&amp;#93;&amp;#101;&amp;#44;&amp;#32;&amp;#26;&amp;#10;&amp;#87;&amp;#97;&amp;#52;&amp;#54;&amp;#93;&amp;#28;&amp;#19;&amp;#109;&amp;#55;&amp;#51;&amp;#93;&amp;#18;&amp;#11;&amp;#102;&amp;#57;&amp;#41;&amp;#75;&amp;#85;&amp;#29;&amp;#34;&amp;#42;&amp;#42;&amp;#76;&amp;#81;&amp;#69;&amp;#101;&amp;#122;&amp;#127;&amp;#94;&amp;#81;&amp;#93;&amp;#115;&amp;#61;&amp;#105;&amp;#26;&amp;#66;&amp;#84;&amp;#115;&amp;#49;&amp;#63;&amp;#93;&amp;#18;&amp;#11;&amp;#102;&amp;#57;&amp;#41;&amp;#75;&amp;#85;&amp;#29;&amp;#34;&amp;#61;&amp;#33;&amp;#81;&amp;#68;&amp;#119;&amp;#111;&amp;#54;&amp;#49;&amp;#26;&amp;#10;&amp;#87;&amp;#97;&amp;#52;&amp;#54;&amp;#93;&amp;#28;&amp;#19;&amp;#101;&amp;#60;&amp;#44;&amp;#76;&amp;#18;&amp;#11;&amp;#102;&amp;#57;&amp;#41;&amp;#75;&amp;#85;&amp;#76;&amp;#44;&amp;#122;&amp;#44;&amp;#75;&amp;#96;&amp;#80;&amp;#116;&amp;#44;&amp;#32;&amp;#74;&amp;#94;&amp;#119;&amp;#105;&amp;#52;&amp;#41;&amp;#26;&amp;#10;&amp;#87;&amp;#97;&amp;#52;&amp;#54;&amp;#93;&amp;#28;&amp;#19;&amp;#105;&amp;#43;&amp;#21;&amp;#89;&amp;#68;&amp;#69;&amp;#101;&amp;#42;&amp;#43;&amp;#107;&amp;#68;&amp;#67;&amp;#111;&amp;#51;&amp;#32;&amp;#26;&amp;#10;&amp;#87;&amp;#97;&amp;#52;&amp;#54;&amp;#93;&amp;#77;" style="pointer-events: bounding-box;"><rect x="211.07442740369947" y="256.64822487128794" id="xe_gub43q" fill="none" opacity="0" width="110.56150180117136" height="111.70354516892338"></rect><g id="xe_frg0c6"><path d="M280.2571539496588,339.3752199808836 L280.2571539496588,339.3752199808836 Q280.2571539496588,343.85663612455903 278.32314883199604,347.10619380220044 Q276.41016550909046,350.3557514798419 273.383027064053,352.43716750865786 L273.383027064053,352.43716750865786 Q270.3558886190157,354.6035392937522 266.4668565889328,355.62300836909066 Q262.57782455885,356.6212385053596 258.6047053497384,356.6212385053596 L258.6047053497384,356.6212385053596 Q253.55947460800934,356.6212385053596 249.31307206705412,355.2407074658387 Q245.06666952609885,353.8601764263179 241.82931313348934,351.09911434727616 L241.82931313348934,351.09911434727616 Q238.5709349461227,348.4230080245126 236.48977726515955,344.4938042966456 Q234.42964137895348,340.5646005687786 233.75694394672303,335.4884941311557 L233.75694394672303,335.4884941311557 L219.79847222793927,335.4884941311557 Q220.00869017551133,342.5185829631773 222.86765426249116,348.2318575728867 Q225.70559655471362,353.94513218259607 230.58265293838514,358.1929199965064 L230.58265293838514,358.1929199965064 Q236.04831957525812,363.12035386064235 243.49003491930853,365.73274336619727 Q250.9107284686017,368.3451328717522 258.6047053497384,368.3451328717522 L258.6047053497384,368.3451328717522 Q265.0163527506857,368.3451328717522 271.4490219463902,366.5185841117707 Q277.8816911420948,364.6920353517893 282.9899872680955,361.0389378318264 L282.9899872680955,361.0389378318264 Q288.0772615993388,357.44955712907205 291.2935961971911,351.99114978819733 Q294.5099307950434,346.5539813863921 294.5099307950434,339.2265474073967 L294.5099307950434,339.2265474073967 Q294.5099307950434,331.98406918467964 291.52483593952036,326.46194502659625 Q288.51871928924015,320.93982086851275 283.64166290556875,317.13805077506305 L283.64166290556875,317.13805077506305 Q278.7015411376257,313.01769659557004 272.71032963182245,310.36282921187603 Q266.7191181260192,307.72920076725154 260.7489284149732,305.8601741291311 L260.7489284149732,305.8601741291311 Q257.1121579219769,304.7345103584448 253.01290794432214,303.2477846235762 Q248.91365796666724,301.73981994963805 245.44506183172854,299.50973134733505 L245.44506183172854,299.50973134733505 Q241.89237851776096,297.25840380596264 239.6010028892257,294.0300850673908 Q237.3096272606905,290.78052738974947 237.24656187641892,286.065482916309 L237.24656187641892,286.065482916309 Q237.24656187641892,281.73273934612035 238.97034904650963,278.4407037903399 Q240.71515801135752,275.16990717362887 243.65820927736615,272.91857963225635 L243.65820927736615,272.91857963225635 Q246.5592169538603,270.68849102995347 250.28007462588556,269.5628272592672 Q254.02195409266795,268.437163488581 257.932007917508,268.437163488581 L257.932007917508,268.437163488581 Q262.8090643011793,268.437163488581 266.69809633126215,269.9663671015887 Q270.5661065665876,271.516809653666 273.383027064053,274.27787173270775 L273.383027064053,274.27787173270775 Q276.17892576676115,277.0389338117495 277.8816911420948,280.8831817833382 Q279.58445651742835,284.72742975492713 280.1730667706301,289.421235289298 L280.1730667706301,289.421235289298 L294.21562566844244,289.421235289298 Q294.06847310514206,281.96636767588546 291.04133466010455,275.91327004106324 Q288.0141962150672,269.86017240624096 282.9899872680955,265.6123845923306 L282.9899872680955,265.6123845923306 Q277.96577832112354,261.3433578393507 271.4490219463902,259.0070745417001 Q264.95328736641403,256.6495523049798 257.932007917508,256.6495523049798 L257.932007917508,256.6495523049798 Q251.5834259008322,256.6495523049798 245.29790926842816,258.62477363844806 Q239.01239263602406,260.59999497191643 234.05124907332385,264.42300400443577 L234.05124907332385,264.42300400443577 Q229.11112730538076,268.2247740978855 226.04194527082905,273.74689825596886 Q222.9727632362771,279.2690224140524 222.9727632362771,286.2991112460739 L222.9727632362771,286.2991112460739 Q222.9727632362771,293.3079611390261 226.04194527082905,298.49026227199664 Q229.11112730538076,303.69380234403684 233.98818368905222,307.4955724374866 L233.98818368905222,307.4955724374866 Q238.7811528936948,311.2336257137277 244.66725542571197,313.88849309742164 Q250.53233616297194,316.52212154204597 256.22924254217435,318.3911481801666 L256.22924254217435,318.3911481801666 Q260.13929636701437,319.66548452433966 264.4067207027269,321.2371660154864 Q268.65312324368205,322.80884750663336 272.1847847628923,325.12389186521443 L272.1847847628923,325.12389186521443 Q275.73746807685995,327.50265304100424 277.9868001158808,330.94336117027166 Q280.2571539496588,334.38406929953896 280.2571539496588,339.3752199808836 z" paint-order="stroke" id="xe_qgqhul" fill="#000000" stroke="#000000" stroke-width="0"></path><path d="M350.09155613309144,368.3451328717522 L350.09155613309144,368.3451328717522 Q361.75865222333994,368.3451328717522 369.7048906415631,363.60884945924204 Q377.6511290597863,358.872566046732 381.6452700636552,352.75575159470117 L381.6452700636552,352.75575159470117 L373.29961754504507,346.1716804831402 Q369.5367162835055,351.09911434727616 363.83980990430314,354.09380475608293 Q358.1429035251007,357.0672562258202 350.82731894959375,357.0672562258202 L350.82731894959375,357.0672562258202 Q345.2775651336917,357.0672562258202 340.6948138766212,354.98584019700405 Q336.11206261955067,352.9044241681881 332.87470622694127,349.2300877091556 L332.87470622694127,349.2300877091556 Q329.70041521860344,345.81061851895777 327.8715190747266,341.3292023752824 Q326.0636447256071,336.847786231607 325.5591216514342,330.94336117027166 L325.5591216514342,330.94336117027166 L325.5591216514342,330.4123876935329 L382.6753380067581,330.4123876935329 L382.6753380067581,324.23185642429337 Q382.6753380067581,315.7787586746117 380.57315853103773,308.5362804518946 Q378.47097905531723,301.2938022291774 374.1825329248477,295.9203506445808 L374.1825329248477,295.9203506445808 Q369.8940867943779,290.6318548162625 363.419374009159,287.5946865293167 Q356.9656830186974,284.57875718144027 348.3257253734864,284.57875718144027 L348.3257253734864,284.57875718144027 Q341.4515984878806,284.57875718144027 334.8927985236328,287.40353607769066 Q328.3550203541422,290.2495539130107 323.2677460228989,295.55928868039854 L323.2677460228989,295.55928868039854 Q318.0963845126265,300.9327402649951 314.98515888856036,308.6637140863118 Q311.87393326449416,316.3734489685592 311.87393326449416,326.1645998796225 L311.87393326449416,326.1645998796225 L311.87393326449416,329.30796286191605 Q311.87393326449416,337.73982167252814 314.6908537619594,344.897344138967 Q317.50777425942476,352.0761055444756 322.5319832063967,357.30088455558524 L322.5319832063967,357.30088455558524 Q327.55619215336856,362.5256635666949 334.5984933970319,365.43539821922354 Q341.6618164354527,368.3451328717522 350.09155613309144,368.3451328717522 zM348.3257253734864,295.9203506445808 L348.3257253734864,295.9203506445808 Q353.56015226803027,295.9203506445808 357.3650971190842,297.87433303897956 Q361.1700419701382,299.80707649430883 363.6926573410027,302.95043947660247 L363.6926573410027,302.95043947660247 Q366.19425091711014,306.0725635198266 367.6027111658426,310.36282921187603 Q369.0111714145753,314.6743338429951 369.0111714145753,318.3911481801666 L369.0111714145753,318.3911481801666 L369.0111714145753,319.07079423039227 L326.0005793413354,319.07079423039227 Q326.7994075421092,313.4637143160306 328.838521633558,309.17344862398113 Q330.8776357250068,304.8831829319317 333.82068699101535,301.8884925231249 L333.82068699101535,301.8884925231249 Q336.7847600517812,298.97875787059627 340.4845959290492,297.4495542575886 Q344.1844318063171,295.9203506445808 348.3257253734864,295.9203506445808 z" paint-order="stroke" id="xe_hw9wb4" fill="#000000" stroke="#000000" stroke-width="0"></path><path d="M437.96265821820555,286.065482916309 L437.96265821820555,266.5044200332518 L424.21440444699385,266.5044200332518 L424.21440444699385,286.065482916309 L403.234653279304,286.065482916309 L403.234653279304,296.7486692682934 L424.21440444699385,296.7486692682934 L424.21440444699385,340.6495563250567 Q424.21440444699385,348.125662877539 426.1694313594138,353.37168082771825 Q428.1244582718339,358.63893771696695 431.529989022501,361.93097327274756 L431.529989022501,361.93097327274756 Q434.93551977316804,365.2867256457367 439.56031461975306,366.81592925874446 Q444.1640876715808,368.3451328717522 449.4826017451535,368.3451328717522 L449.4826017451535,368.3451328717522 Q452.6779145482486,368.3451328717522 455.89424914610083,368.04778772477846 Q459.08956194919585,367.7504425778047 461.9905696256901,367.1557522838572 L461.9905696256901,367.1557522838572 Q464.87055550742707,366.62477880711845 467.3090836992627,365.8601770006146 Q469.74761189109836,365.0743362550411 471.45037726643204,364.01238930156353 L471.45037726643204,364.01238930156353 L469.51637214876916,354.2424773295698 Q468.2550644633369,354.5398224765436 466.30003755091684,354.943362318865 Q464.3450106384969,355.3681411002561 462.13772218899055,355.7292030644384 L462.13772218899055,355.7292030644384 Q459.84634656045523,356.11150396769034 457.47088375289115,356.36637123652497 Q455.11644274008427,356.6212385053596 452.8881324958206,356.6212385053596 L452.8881324958206,356.6212385053596 Q449.86099405078323,356.6212385053596 447.170204321861,355.8778756379253 Q444.45839279818165,355.13451277049097 442.3982569119755,353.26548613237037 L442.3982569119755,353.26548613237037 Q440.3170992310123,351.4814152505281 439.13987872460893,348.4230080245126 Q437.96265821820555,345.34336185942766 437.96265821820555,340.6495563250567 L437.96265821820555,340.6495563250567 L437.96265821820555,296.7486692682934 L468.40221702663735,296.7486692682934 L468.40221702663735,286.065482916309 L437.96265821820555,286.065482916309 z" paint-order="stroke" id="xe_pwoc57" fill="#000000" stroke="#000000" stroke-width="0"></path><path d="" paint-order="stroke" id="xe_z3tqih" fill="#000000" stroke="#000000" stroke-width="0"></path><path d="M579.6285330870053,258.13627803984843 L613.6417970041618,366.85840713688356 L625.5401328367394,366.85840713688356 L659.4482877801099,258.13627803984843 L644.9012058081247,258.13627803984843 L621.1045341429696,339.16283059018804 L619.4648341519074,344.5999989919933 L617.9302431346315,339.311503163675 L594.2807240327766,258.13627803984843 L579.6285330870053,258.13627803984843 z" paint-order="stroke" id="xe_5a4oep" fill="#000000" stroke="#000000" stroke-width="0"></path><path d="M713.4112349218535,368.3451328717522 L713.4112349218535,368.3451328717522 Q725.0783310121018,368.3451328717522 733.024569430325,363.60884945924204 Q740.9708078485484,358.872566046732 744.9649488524171,352.75575159470117 L744.9649488524171,352.75575159470117 L736.619296333807,346.1716804831402 Q732.8353732775103,351.09911434727616 727.1594886930651,354.09380475608293 Q721.4625823138626,357.0672562258202 714.1469977383556,357.0672562258202 L714.1469977383556,357.0672562258202 Q708.5972439224538,357.0672562258202 704.0144926653832,354.98584019700405 Q699.4317414083126,352.9044241681881 696.1943850157031,349.2300877091556 L696.1943850157031,349.2300877091556 Q692.9990722126082,345.81061851895777 691.1911978634885,341.3292023752824 Q689.383323514369,336.847786231607 688.878800440196,330.94336117027166 L688.878800440196,330.94336117027166 L688.878800440196,330.4123876935329 L745.9950167955202,330.4123876935329 L745.9950167955202,324.23185642429337 Q745.9950167955202,315.7787586746117 743.8928373197997,308.5362804518946 Q741.7906578440793,301.2938022291774 737.5022117136098,295.9203506445808 L737.5022117136098,295.9203506445808 Q733.21376558314,290.6318548162625 726.7390527979211,287.5946865293167 Q720.2853618074593,284.57875718144027 711.6243823674911,284.57875718144027 L711.6243823674911,284.57875718144027 Q704.7502554818853,284.57875718144027 698.2124773123948,287.40353607769066 Q691.6746991429042,290.2495539130107 686.5874248116608,295.55928868039854 L686.5874248116608,295.55928868039854 Q681.3950415066313,300.9327402649951 678.3048376773222,308.6637140863118 Q675.1936120532561,316.3734489685592 675.1936120532561,326.1645998796225 L675.1936120532561,326.1645998796225 L675.1936120532561,329.30796286191605 Q675.1936120532561,337.73982167252814 678.0105325507215,344.897344138967 Q680.8064312534295,352.0761055444756 685.8306402004015,357.30088455558524 L685.8306402004015,357.30088455558524 Q690.8548491473732,362.5256635666949 697.9181721857939,365.43539821922354 Q704.9814952242144,368.3451328717522 713.4112349218535,368.3451328717522 zM711.6243823674911,295.9203506445808 L711.6243823674911,295.9203506445808 Q716.8798310567922,295.9203506445808 720.6847759078463,297.87433303897956 Q724.4897207589001,299.80707649430883 727.0123361297647,302.95043947660247 L727.0123361297647,302.95043947660247 Q729.513929705872,306.0725635198266 730.9223899546046,310.36282921187603 Q732.3308502033374,314.6743338429951 732.3308502033374,318.3911481801666 L732.3308502033374,318.3911481801666 L732.3308502033374,319.07079423039227 L689.3202581300974,319.07079423039227 Q690.1190863308711,313.4637143160306 692.15820042232,309.17344862398113 Q694.1973145137687,304.8831829319317 697.1403657797774,301.8884925231249 L697.1403657797774,301.8884925231249 Q700.1044388405431,298.97875787059627 703.804274717811,297.4495542575886 Q707.4830888003218,295.9203506445808 711.6243823674911,295.9203506445808 z" paint-order="stroke" id="xe_x8vtqe" fill="#000000" stroke="#000000" stroke-width="0"></path><path d="M821.3161074105832,284.57875718144027 L821.3161074105832,284.57875718144027 Q812.5920625863432,284.57875718144027 805.7389574954948,288.4230051530291 Q798.9068741994033,292.267253124618 794.0298178157319,298.9150410533877 L794.0298178157319,298.9150410533877 L793.9667524314601,296.89734184178025 L793.3781421782586,286.065482916309 L780.3656512235492,286.065482916309 L780.3656512235492,366.85840713688356 L794.1139049947609,366.85840713688356 L794.1139049947609,315.03539580717734 Q795.4382780644647,311.2973425309363 797.4773921559133,308.28141318306 Q799.4954844526053,305.2654838351836 802.2283177710416,303.16282886729806 L802.2283177710416,303.16282886729806 Q805.2764780108364,300.7840676915082 809.3336843989765,299.5522092254742 Q813.3908907871171,298.3203507594402 818.4150997340892,298.3203507594402 L818.4150997340892,298.3203507594402 Q822.3461753536859,298.3203507594402 825.919880462411,298.7238906017617 Q829.5146073658927,299.12743044408325 833.5087483697614,300.0407048240738 L833.5087483697614,300.0407048240738 L835.3376445136382,286.5115006367695 Q833.2775086274326,285.61946519584836 829.1782586497775,285.0884917191096 Q825.0790086721225,284.57875718144027 821.3161074105832,284.57875718144027 z" paint-order="stroke" id="xe_anb7ws" fill="#000000" stroke="#000000" stroke-width="0"></path></g></g><g id="xe_xhf9s1" type="text" pointer-events="bounding-box" xe-props="&amp;#35;&amp;#103;&amp;#76;&amp;#73;&amp;#65;&amp;#101;&amp;#122;&amp;#127;&amp;#26;&amp;#68;&amp;#84;&amp;#120;&amp;#44;&amp;#103;&amp;#20;&amp;#18;&amp;#69;&amp;#101;&amp;#32;&amp;#49;&amp;#26;&amp;#10;&amp;#19;&amp;#123;&amp;#120;&amp;#101;&amp;#24;&amp;#77;&amp;#19;&amp;#44;&amp;#122;&amp;#35;&amp;#87;&amp;#94;&amp;#69;&amp;#34;&amp;#98;&amp;#62;&amp;#26;&amp;#83;&amp;#80;&amp;#116;&amp;#61;&amp;#34;&amp;#87;&amp;#66;&amp;#72;&amp;#95;&amp;#54;&amp;#36;&amp;#85;&amp;#85;&amp;#66;&amp;#34;&amp;#98;&amp;#103;&amp;#26;&amp;#28;&amp;#19;&amp;#102;&amp;#49;&amp;#41;&amp;#93;&amp;#111;&amp;#95;&amp;#97;&amp;#53;&amp;#32;&amp;#26;&amp;#10;&amp;#19;&amp;#34;&amp;#116;&amp;#103;&amp;#94;&amp;#95;&amp;#95;&amp;#116;&amp;#7;&amp;#35;&amp;#89;&amp;#93;&amp;#88;&amp;#108;&amp;#33;&amp;#103;&amp;#2;&amp;#18;&amp;#99;&amp;#111;&amp;#58;&amp;#42;&amp;#76;&amp;#95;&amp;#124;&amp;#111;&amp;#54;&amp;#42;&amp;#21;&amp;#102;&amp;#80;&amp;#114;&amp;#49;&amp;#36;&amp;#90;&amp;#92;&amp;#84;&amp;#70;&amp;#55;&amp;#43;&amp;#76;&amp;#111;&amp;#70;&amp;#103;&amp;#48;&amp;#49;&amp;#26;&amp;#28;&amp;#19;&amp;#110;&amp;#57;&amp;#40;&amp;#93;&amp;#18;&amp;#11;&amp;#34;&amp;#10;&amp;#42;&amp;#90;&amp;#95;&amp;#69;&amp;#111;&amp;#21;&amp;#42;&amp;#86;&amp;#95;&amp;#28;&amp;#86;&amp;#57;&amp;#55;&amp;#81;&amp;#81;&amp;#83;&amp;#108;&amp;#61;&amp;#3;&amp;#87;&amp;#94;&amp;#69;&amp;#95;&amp;#47;&amp;#34;&amp;#80;&amp;#68;&amp;#19;&amp;#44;&amp;#122;&amp;#53;&amp;#74;&amp;#89;&amp;#82;&amp;#101;&amp;#122;&amp;#127;&amp;#8;&amp;#28;&amp;#19;&amp;#120;&amp;#61;&amp;#26;&amp;#81;&amp;#84;&amp;#19;&amp;#58;&amp;#104;&amp;#56;&amp;#20;&amp;#18;&amp;#87;&amp;#105;&amp;#52;&amp;#41;&amp;#26;&amp;#10;&amp;#19;&amp;#35;&amp;#108;&amp;#113;&amp;#1;&amp;#8;&amp;#6;&amp;#57;&amp;#122;&amp;#105;&amp;#26;&amp;#67;&amp;#69;&amp;#114;&amp;#55;&amp;#46;&amp;#93;&amp;#18;&amp;#11;&amp;#34;&amp;#123;&amp;#117;&amp;#8;&amp;#0;&amp;#1;&amp;#48;&amp;#104;&amp;#103;&amp;#20;&amp;#18;&amp;#66;&amp;#116;&amp;#42;&amp;#42;&amp;#83;&amp;#85;&amp;#127;&amp;#97;&amp;#53;&amp;#32;&amp;#26;&amp;#10;&amp;#19;&amp;#35;&amp;#104;&amp;#117;&amp;#8;&amp;#0;&amp;#1;&amp;#48;&amp;#122;&amp;#105;&amp;#26;&amp;#68;&amp;#84;&amp;#120;&amp;#44;&amp;#9;&amp;#93;&amp;#94;&amp;#19;&amp;#58;&amp;#109;&amp;#105;&amp;#26;&amp;#67;&amp;#69;&amp;#114;&amp;#55;&amp;#46;&amp;#93;&amp;#103;&amp;#88;&amp;#100;&amp;#44;&amp;#45;&amp;#26;&amp;#10;&amp;#1;&amp;#44;&amp;#122;&amp;#43;&amp;#87;&amp;#127;&amp;#87;&amp;#76;&amp;#49;&amp;#43;&amp;#93;&amp;#67;&amp;#19;&amp;#58;&amp;#104;&amp;#105;&amp;#26;&amp;#92;&amp;#88;&amp;#110;&amp;#61;&amp;#22;&amp;#72;&amp;#81;&amp;#82;&amp;#101;&amp;#122;&amp;#127;&amp;#8;&amp;#28;&amp;#19;&amp;#108;&amp;#61;&amp;#49;&amp;#76;&amp;#85;&amp;#67;&amp;#83;&amp;#40;&amp;#36;&amp;#91;&amp;#85;&amp;#19;&amp;#58;&amp;#104;&amp;#105;&amp;#26;&amp;#86;&amp;#94;&amp;#110;&amp;#44;&amp;#22;&amp;#81;&amp;#74;&amp;#84;&amp;#34;&amp;#98;&amp;#116;&amp;#8;&amp;#1;&amp;#29;&amp;#34;&amp;#57;&amp;#55;&amp;#76;&amp;#99;&amp;#88;&amp;#122;&amp;#61;&amp;#103;&amp;#2;&amp;#1;&amp;#29;&amp;#34;&amp;#61;&amp;#35;&amp;#94;&amp;#85;&amp;#82;&amp;#116;&amp;#122;&amp;#127;&amp;#26;&amp;#94;&amp;#94;&amp;#110;&amp;#61;&amp;#103;&amp;#20;&amp;#18;&amp;#80;&amp;#108;&amp;#49;&amp;#34;&amp;#86;&amp;#18;&amp;#11;&amp;#34;&amp;#59;&amp;#32;&amp;#86;&amp;#68;&amp;#84;&amp;#114;&amp;#122;&amp;#105;&amp;#26;&amp;#83;&amp;#94;&amp;#108;&amp;#55;&amp;#55;&amp;#75;&amp;#18;&amp;#11;&amp;#91;&amp;#122;&amp;#102;&amp;#12;&amp;#4;&amp;#8;&amp;#56;&amp;#111;&amp;#124;&amp;#26;&amp;#28;&amp;#19;&amp;#35;&amp;#104;&amp;#117;&amp;#8;&amp;#0;&amp;#1;&amp;#48;&amp;#122;&amp;#24;&amp;#20;&amp;#18;&amp;#73;&amp;#101;&amp;#17;&amp;#33;&amp;#26;&amp;#10;&amp;#1;&amp;#44;&amp;#122;&amp;#42;&amp;#90;&amp;#90;&amp;#84;&amp;#99;&amp;#44;&amp;#17;&amp;#81;&amp;#68;&amp;#93;&amp;#101;&amp;#122;&amp;#127;&amp;#26;&amp;#18;&amp;#29;&amp;#34;&amp;#55;&amp;#53;&amp;#93;&amp;#66;&amp;#80;&amp;#116;&amp;#49;&amp;#42;&amp;#86;&amp;#18;&amp;#11;&amp;#34;&amp;#45;&amp;#53;&amp;#92;&amp;#81;&amp;#69;&amp;#101;&amp;#122;&amp;#105;&amp;#26;&amp;#89;&amp;#66;&amp;#84;&amp;#61;&amp;#40;&amp;#72;&amp;#92;&amp;#80;&amp;#116;&amp;#61;&amp;#0;&amp;#84;&amp;#85;&amp;#92;&amp;#34;&amp;#98;&amp;#35;&amp;#89;&amp;#92;&amp;#66;&amp;#101;&amp;#116;&amp;#103;&amp;#81;&amp;#67;&amp;#103;&amp;#101;&amp;#42;&amp;#49;&amp;#81;&amp;#83;&amp;#80;&amp;#108;&amp;#122;&amp;#127;&amp;#94;&amp;#81;&amp;#93;&amp;#115;&amp;#61;&amp;#105;&amp;#26;&amp;#89;&amp;#66;&amp;#84;&amp;#61;&amp;#40;&amp;#72;&amp;#92;&amp;#80;&amp;#116;&amp;#61;&amp;#12;&amp;#85;&amp;#87;&amp;#19;&amp;#58;&amp;#62;&amp;#36;&amp;#84;&amp;#67;&amp;#84;&amp;#44;&amp;#122;&amp;#41;&amp;#87;&amp;#83;&amp;#90;&amp;#34;&amp;#98;&amp;#62;&amp;#26;&amp;#83;&amp;#94;&amp;#108;&amp;#55;&amp;#55;&amp;#125;&amp;#84;&amp;#88;&amp;#116;&amp;#122;&amp;#127;&amp;#94;&amp;#81;&amp;#93;&amp;#115;&amp;#61;&amp;#105;&amp;#26;&amp;#84;&amp;#84;&amp;#108;&amp;#61;&amp;#49;&amp;#93;&amp;#18;&amp;#11;&amp;#102;&amp;#57;&amp;#41;&amp;#75;&amp;#85;&amp;#29;&amp;#34;&amp;#53;&amp;#42;&amp;#78;&amp;#85;&amp;#19;&amp;#58;&amp;#62;&amp;#36;&amp;#84;&amp;#67;&amp;#84;&amp;#44;&amp;#122;&amp;#55;&amp;#87;&amp;#68;&amp;#80;&amp;#116;&amp;#61;&amp;#103;&amp;#2;&amp;#86;&amp;#80;&amp;#108;&amp;#43;&amp;#32;&amp;#20;&amp;#18;&amp;#67;&amp;#101;&amp;#43;&amp;#44;&amp;#66;&amp;#85;&amp;#19;&amp;#58;&amp;#62;&amp;#36;&amp;#84;&amp;#67;&amp;#84;&amp;#44;&amp;#122;&amp;#32;&amp;#92;&amp;#89;&amp;#69;&amp;#70;&amp;#55;&amp;#43;&amp;#76;&amp;#18;&amp;#11;&amp;#102;&amp;#57;&amp;#41;&amp;#75;&amp;#85;&amp;#29;&amp;#34;&amp;#61;&amp;#33;&amp;#81;&amp;#68;&amp;#19;&amp;#58;&amp;#62;&amp;#36;&amp;#84;&amp;#67;&amp;#84;&amp;#125;&amp;#116;&amp;#103;&amp;#81;&amp;#67;&amp;#97;&amp;#97;&amp;#44;&amp;#49;&amp;#93;&amp;#66;&amp;#95;&amp;#70;&amp;#49;&amp;#41;&amp;#84;&amp;#18;&amp;#11;&amp;#102;&amp;#57;&amp;#41;&amp;#75;&amp;#85;&amp;#29;&amp;#34;&amp;#49;&amp;#54;&amp;#104;&amp;#81;&amp;#69;&amp;#116;&amp;#61;&amp;#55;&amp;#86;&amp;#99;&amp;#69;&amp;#114;&amp;#55;&amp;#46;&amp;#93;&amp;#18;&amp;#11;&amp;#102;&amp;#57;&amp;#41;&amp;#75;&amp;#85;&amp;#76;" style="pointer-events: bounding-box;"><rect x="119.66237508505179" y="239.0950134452678" id="xe_ish41p" fill="none" opacity="0" width="145.30618891466986" height="146.80712700469098"></rect><g id="xe_mhzes5"><path d="M192.05422138160782,385.90501669985895 L192.05422138160782,385.90501669985895 L193.61523154433667,377.30660021307733 Q189.02225933476876,377.15495265599117 186.02031671413613,374.7589212540309 Q183.0183740935035,372.3628898520706 181.24722794733026,368.6323599477526 L181.24722794733026,368.6323599477526 Q179.40103323564125,364.96248906626903 178.66555729358618,360.3675680865603 Q177.91507163842806,355.7726471068516 177.91507163842806,351.1322318600171 L177.91507163842806,351.1322318600171 L177.91507163842806,338.48482559903664 Q177.84002307291223,329.5831139980828 173.77239082195507,322.8196329520429 Q169.7047585709979,316.05615190600304 161.1192026759885,312.6137523601487 L161.1192026759885,312.6137523601487 Q169.7047585709979,309.09552903575116 173.80241024816132,302.33204798971127 Q177.91507163842806,295.5685669436714 177.91507163842806,286.59103156417444 L177.91507163842806,286.59103156417444 L177.91507163842806,273.867801524651 Q177.91507163842806,269.3183748120681 178.36536303152297,264.6779595652336 Q178.80064471151468,260.03754431839906 180.43670343975947,256.29184965837237 L180.43670343975947,256.29184965837237 Q181.98270388938522,252.63714353259752 185.13474364104957,250.2411121306372 Q188.28678339271386,247.84508072867686 193.61523154433667,247.6934331715907 L193.61523154433667,247.6934331715907 L192.05422138160782,239.09501668480908 Q184.57938425623252,239.32248802043824 179.32598467012542,242.35543916216017 Q174.07258508401827,245.37322554817348 170.8154773406319,250.16528835209414 L170.8154773406319,250.16528835209414 Q167.33322390069804,255.16965773593535 165.74219431176266,261.4933608664255 Q164.1511647228274,267.81706399691575 164.1511647228274,273.867801524651 L164.1511647228274,273.867801524651 L164.1511647228274,286.59103156417444 Q164.1511647228274,297.43383189583034 159.07788169395832,302.25622421116816 Q154.00459866508908,307.0786165265061 143.57284805839078,307.0786165265061 L143.57284805839078,307.0786165265061 L143.57284805839078,317.921416858162 Q154.00459866508908,317.997240636705 159.07788169395832,322.8651272191687 Q164.1511647228274,327.7178490459238 164.1511647228274,338.48482559903664 L164.1511647228274,338.48482559903664 L164.1511647228274,351.1322318600171 Q164.1511647228274,357.1071456092093 165.8472623034848,363.20337740407035 Q167.55836959724553,369.2996091989315 170.89052590614767,374.2433195599382 L170.89052590614767,374.2433195599382 Q174.35776963297843,379.39933650086545 179.62617893218862,382.5384409325476 Q184.87957851829572,385.6775453642298 192.05422138160782,385.90501669985895 z" paint-order="stroke" id="xe_s9hjxf" fill="#449879" stroke="#000000" stroke-width="0"></path><path d="" paint-order="stroke" id="xe_myu12u" fill="#449879" stroke="#000000" stroke-width="0"></path><path d="" paint-order="stroke" id="xe_o4un0c" fill="#449879" stroke="#000000" stroke-width="0"></path><path d="" paint-order="stroke" id="xe_vwumal" fill="#449879" stroke="#000000" stroke-width="0"></path><path d="M507.4683325314785,377.30660021307733 L507.4683325314785,377.30660021307733 L509.0143329811042,385.90501669985895 Q516.2790341230353,385.75336914277284 521.5324337091424,382.5384409325476 Q526.7858332952495,379.3235127223224 530.2680867351833,374.31914333848124 L530.2680867351833,374.31914333848124 Q533.6752916096013,369.2996091989315 535.2963406247432,363.20337740407035 Q536.9323993529878,357.1071456092093 536.9323993529878,351.1322318600171 L536.9323993529878,351.1322318600171 L536.9323993529878,338.48482559903664 Q536.9323993529878,333.2529848795663 538.1181666881375,329.44663119670525 Q539.2889243101843,325.6251127581357 541.735507546,323.07743379908925 L541.735507546,323.07743379908925 Q544.2571393473314,320.46909581720837 548.2197036065666,319.2255858491024 Q552.1822678658017,317.997240636705 557.5107160174247,317.921416858162 L557.5107160174247,317.921416858162 L557.5107160174247,307.0786165265061 Q551.4317822106435,307.0786165265061 547.1089848369323,305.47115242139347 Q542.7711777501182,303.86368831628084 540.3396042274059,300.34546499188343 L540.3396042274059,300.34546499188343 Q538.6284969336452,297.87360981138005 537.7729432867649,294.4767045326515 Q536.9323993529878,291.0797992539229 536.9323993529878,286.59103156417444 L536.9323993529878,286.59103156417444 L536.9323993529878,273.867801524651 Q536.9323993529878,267.5895926612866 535.2663211985366,261.1597362408362 Q533.6002430440856,254.72987982038563 529.8177953420884,249.57386287945832 L529.8177953420884,249.57386287945832 Q526.4856390331861,245.00927141116682 521.3523171519043,242.15829733794823 Q516.2039855575196,239.32248802043824 509.0143329811042,239.09501668480908 L509.0143329811042,239.09501668480908 L507.5433810969944,247.6934331715907 Q512.8718292486172,247.84508072867686 515.9788398609719,250.2411121306372 Q519.0858504733268,252.63714353259752 520.7219092015716,256.29184965837237 L520.7219092015716,256.29184965837237 Q522.2679096511973,260.03754431839906 522.7482204704986,264.6779595652336 Q523.2285312897998,269.3183748120681 523.2285312897998,273.867801524651 L523.2285312897998,273.867801524651 L523.2285312897998,286.59103156417444 Q523.2285312897998,292.4142977562806 524.9396385835604,297.38833762870456 Q526.6357361642179,302.36237750112844 530.1930381696675,306.1080721611551 L530.1930381696675,306.1080721611551 Q532.0392328813567,308.1249846704002 534.5158355433786,309.7779430426386 Q537.0074479185035,311.41573665916843 539.9643613998268,312.6137523601487 L539.9643613998268,312.6137523601487 Q537.0824964840195,313.8117680611287 534.6659326744102,315.37373789911555 Q532.264378577904,316.9508724928109 530.3431353006991,318.89196122351296 L530.3431353006991,318.89196122351296 Q526.7107847297337,322.5618321049965 524.9696580097667,327.5662014888377 Q523.2285312897998,332.58573562838745 523.2285312897998,338.48482559903664 L523.2285312897998,338.48482559903664 L523.2285312897998,351.1322318600171 Q523.2285312897998,355.7726471068516 522.4630359215386,360.3675680865603 Q521.6825308401739,364.96248906626903 519.8963749808975,368.6323599477526 L519.8963749808975,368.6323599477526 Q518.0501802692086,372.3628898520706 515.0182182223695,374.7589212540309 Q511.9862561755307,377.15495265599117 507.4683325314785,377.30660021307733 z" paint-order="stroke" id="xe_2icdtm" fill="#449879" stroke="#000000" stroke-width="0"></path></g></g></g><g id="borderG" clip-path="url(#bound_0)" display="none"><rect id="border" x="95.5" y="185.66666666666666" width="764" height="254.66666666666669" aWidth="6" aHeight="2.00" fill="none" stroke-width="1" stroke="#000" pointer-events="none"></rect></g></svg>